#!OML:ASF X:\für Bonn\!DataBase\2005_08_10_Bjorn_Final\c3d\bjorn.ASF
:FULLY-SPECIFIED
:DEGREES
92
root -21.4697 19.4426 0.139828 -276.416 -88.8999 -78.8601
lowerback -13.2203 6.08422 -4.73553
upperback 3.18137 9.57185 -7.78988
thorax 11.5556 4.4552 -3.6961
lowerneck -2.39643 -7.71684 6.53741
upperneck 6.17596 -10.47 -2.70606
head 1.8637 -5.15421 -2.16837
rclavicle 6.0033e-014 -7.31528e-014
rhumerus 47.1543 11.1285 -28.8326
rradius 47.3467
rwrist -27.4492
rhand 2.99581 1.24232
rfingers 7.12502
rthumb 28.4566 -26.6136
lclavicle 6.0033e-014 -7.31528e-014
lhumerus -22.9614 20.5751 72.3228
lradius 14.8924
lwrist -44.1775
lhand -17.2573 -5.26752
lfingers 7.12502
lthumb 8.98703 24.5211
rfemur -12.5676 -14.643 18.0168
rtibia 25.2622
rfoot -8.74694 20.0611
rtoes 4.50247
lfemur -11.5009 14.7908 -16.0196
ltibia 24.2804
lfoot -9.53891 -16.0054
ltoes 0.159185
93
root -21.4693 19.4424 0.139122 -279.409 -88.8884 -75.8753
lowerback -13.2342 6.09798 -4.79456
upperback 3.18167 9.59893 -7.75691
thorax 11.5488 4.46243 -3.62004
lowerneck -2.47568 -7.75087 6.54971
upperneck 6.4165 -10.5283 -2.6474
head 1.95637 -5.1778 -2.16599
rclavicle 6.75868e-015 -4.77083e-014
rhumerus 47.1333 11.417 -28.4029
rradius 47.5041
rwrist -27.4496
rhand 2.4337 1.44443
rfingers 7.12502
rthumb 27.9193 -26.5001
lclavicle 6.75868e-015 -4.77083e-014
lhumerus -23.0031 20.8562 72.2259
lradius 14.7963
lwrist -44.506
lhand -17.2075 -5.21011
lfingers 7.12502
lthumb 9.03515 24.5764
rfemur -12.5451 -14.6171 18.0186
rtibia 25.2545
rfoot -8.78739 19.9792
rtoes 4.44959
lfemur -11.5079 14.7214 -16.0196
ltibia 24.2965
lfoot -9.57779 -15.9657
ltoes -0.0169535
94
root -21.4698 19.4427 0.139569 -281.618 -88.8762 -73.682
lowerback -13.2451 6.12465 -4.82091
upperback 3.17842 9.63902 -7.74439
thorax 11.5466 4.47902 -3.58159
lowerneck -2.5866 -7.78419 6.57648
upperneck 6.71052 -10.5915 -2.56616
head 2.073 -5.20184 -2.16303
rclavicle 3.69739e-014 1.27222e-014
rhumerus 47.0522 11.5439 -28.3459
rradius 47.5977
rwrist -27.3924
rhand 2.0085 1.58515
rfingers 7.12502
rthumb 27.5127 -26.4247
lclavicle 3.69739e-014 1.27222e-014
lhumerus -23.0516 21.1083 72.0982
lradius 14.7111
lwrist -44.8528
lhand -17.1281 -5.19406
lfingers 7.12502
lthumb 9.11173 24.5891
rfemur -12.5095 -14.5712 18.0152
rtibia 25.2426
rfoot -8.83092 19.8935
rtoes 4.39615
lfemur -11.5016 14.6662 -16.0153
ltibia 24.3133
lfoot -9.59764 -15.9536
ltoes -0.0522116
95
root -21.4692 19.4422 0.140507 -283.038 -88.8671 -72.2782
lowerback -13.2576 6.14911 -4.84004
upperback 3.1886 9.67598 -7.72022
thorax 11.5593 4.49393 -3.53454
lowerneck -2.74126 -7.80707 6.60195
upperneck 7.02141 -10.6423 -2.52212
head 2.20235 -5.22004 -2.17517
rclavicle 2.18663e-014 -2.54444e-014
rhumerus 46.9366 11.5321 -28.5568
rradius 47.6749
rwrist -27.2306
rhand 1.74419 1.63236
rfingers 7.12502
rthumb 27.2599 -26.4175
lclavicle 2.18663e-014 -2.54444e-014
lhumerus -23.0857 21.5393 71.9453
lradius 14.5852
lwrist -45.366
lhand -17.0631 -5.19346
lfingers 7.12502
lthumb 9.1745 24.587
rfemur -12.484 -14.5834 18.0089
rtibia 25.2341
rfoot -8.85051 19.8808
rtoes 4.29015
lfemur -11.4924 14.6236 -16.0166
ltibia 24.3301
lfoot -9.65554 -15.916
ltoes -0.268125
96
root -21.469 19.4427 0.141214 -285.348 -88.8674 -69.9748
lowerback -13.2664 6.16734 -4.86778
upperback 3.18575 9.70494 -7.71078
thorax 11.556 4.50525 -3.50157
lowerneck -2.88239 -7.83233 6.63084
upperneck 7.35977 -10.6979 -2.46538
head 2.33943 -5.23944 -2.18455
rclavicle -5.4467e-014 1.90833e-014
rhumerus 46.8001 11.5262 -28.7628
rradius 47.7515
rwrist -27.1947
rhand 1.47938 1.67343
rfingers 7.12502
rthumb 27.0066 -26.4159
lclavicle -5.4467e-014 1.90833e-014
lhumerus -23.1251 22.0157 71.7487
lradius 14.4163
lwrist -45.9531
lhand -17.0102 -5.20711
lfingers 7.12502
lthumb 9.22547 24.5711
rfemur -12.46 -14.5676 17.9938
rtibia 25.2199
rfoot -8.899 19.8127
rtoes 4.13605
lfemur -11.4977 14.5662 -16.033
ltibia 24.3488
lfoot -9.68116 -15.8854
ltoes -0.325511
97
root -21.4684 19.4424 0.142673 -286.206 -88.8451 -69.1341
lowerback -13.2652 6.20055 -4.83324
upperback 3.18468 9.74428 -7.70983
thorax 11.5617 4.52662 -3.51006
lowerneck -3.00495 -7.85875 6.6644
upperneck 7.6851 -10.7571 -2.379
head 2.47084 -5.25955 -2.18395
rclavicle -4.92986e-014 -5.08889e-014
rhumerus 46.6199 11.4766 -28.9935
rradius 47.8387
rwrist -27.2401
rhand 1.23896 1.74443
rfingers 7.12502
rthumb 26.7765 -26.3804
lclavicle -4.92986e-014 -5.08889e-014
lhumerus -23.1609 22.6405 71.487
lradius 14.215
lwrist -46.7328
lhand -16.9566 -5.22954
lfingers 7.12502
lthumb 9.27718 24.5464
rfemur -12.4323 -14.5964 18.0011
rtibia 25.2073
rfoot -8.89175 19.8191
rtoes 4.13703
lfemur -11.49 14.5305 -16.0166
ltibia 24.3662
lfoot -9.69639 -15.8731
ltoes -0.337388
98
root -21.4681 19.4427 0.144645 -286.83 -88.8398 -68.5172
lowerback -13.282 6.23192 -4.80701
upperback 3.19201 9.78545 -7.71121
thorax 11.587 4.54761 -3.51432
lowerneck -3.16097 -7.87917 6.67243
upperneck 8.03472 -10.8138 -2.25718
head 2.6208 -5.27691 -2.17111
rclavicle 1.19271e-015 -3.18055e-015
rhumerus 46.4356 11.3818 -29.2612
rradius 47.9006
rwrist -27.3506
rhand 1.03926 1.94128
rfingers 7.12502
rthumb 26.5854 -26.2126
lclavicle 1.19271e-015 -3.18055e-015
lhumerus -23.1847 23.3182 71.2198
lradius 14.0143
lwrist -47.5452
lhand -16.9127 -5.2938
lfingers 7.12502
lthumb 9.31955 24.4802
rfemur -12.4106 -14.5744 17.9933
rtibia 25.1904
rfoot -8.91542 19.7873
rtoes 4.01799
lfemur -11.4869 14.5022 -16.0238
ltibia 24.3842
lfoot -9.73609 -15.8273
ltoes -0.434372
99
root -21.4677 19.4432 0.146612 -287.648 -88.8469 -67.7064
lowerback -13.291 6.26134 -4.78026
upperback 3.18692 9.82262 -7.72767
thorax 11.5966 4.56769 -3.5374
lowerneck -3.24835 -7.90386 6.68806
upperneck 8.35388 -10.8734 -2.12718
head 2.74873 -5.2956 -2.1518
rclavicle 1.43125e-014 -2.8625e-014
rhumerus 46.2172 11.279 -29.5735
rradius 47.9703
rwrist -27.5164
rhand 0.858461 2.17411
rfingers 7.12502
rthumb 26.4124 -26.0059
lclavicle 1.43125e-014 -2.8625e-014
lhumerus -23.2358 24.0859 70.8788
lradius 13.7858
lwrist -48.4777
lhand -16.8477 -5.36116
lfingers 7.12502
lthumb 9.38226 24.41
rfemur -12.3889 -14.5657 17.9704
rtibia 25.1729
rfoot -8.90176 19.7645
rtoes 4.0169
lfemur -11.4867 14.4748 -16.0432
ltibia 24.4009
lfoot -9.7586 -15.8103
ltoes -0.468259
100
root -21.4665 19.4429 0.148474 -288.168 -88.828 -67.2023
lowerback -13.2869 6.28289 -4.72354
upperback 3.19767 9.84377 -7.72434
thorax 11.6166 4.58179 -3.55951
lowerneck -3.4001 -7.91349 6.65329
upperneck 8.72267 -10.9194 -1.96755
head 2.91136 -5.30619 -2.12079
rclavicle -7.27552e-014 5.40694e-014
rhumerus 46.0421 11.1358 -29.8901
rradius 48.0015
rwrist -27.7216
rhand 0.687129 2.53158
rfingers 7.12502
rthumb 26.2484 -25.6729
lclavicle -7.27552e-014 5.40694e-014
lhumerus -23.278 24.7477 70.5993
lradius 13.5784
lwrist -49.2613
lhand -16.7813 -5.36251
lfingers 7.12502
lthumb 9.44633 24.4058
rfemur -12.3564 -14.5178 17.9767
rtibia 25.1566
rfoot -8.92776 19.7024
rtoes 3.97138
lfemur -11.4816 14.4452 -16.0305
ltibia 24.4174
lfoot -9.77849 -15.7819
ltoes -0.519607
101
root -21.4658 19.4434 0.150711 -288.686 -88.8391 -66.6924
lowerback -13.2891 6.28976 -4.7073
upperback 3.18971 9.84909 -7.70993
thorax 11.6089 4.5854 -3.55102
lowerneck -3.47345 -7.91815 6.58985
upperneck 9.07761 -10.9511 -1.82584
head 3.05693 -5.31131 -2.08545
rclavicle -5.56597e-015 6.04305e-014
rhumerus 45.864 11.0239 -30.2178
rradius 48.0493
rwrist -27.9389
rhand 0.550014 2.99612
rfingers 7.12502
rthumb 26.1171 -25.2279
lclavicle -5.56597e-015 6.04305e-014
lhumerus -23.4104 25.5323 70.2729
lradius 13.3817
lwrist -50.1575
lhand -16.7088 -5.35923
lfingers 7.12502
lthumb 9.5163 24.4059
rfemur -12.3371 -14.4993 17.952
rtibia 25.1407
rfoot -8.94573 19.6808
rtoes 3.86007
lfemur -11.4757 14.4232 -16.0512
ltibia 24.4309
lfoot -9.80113 -15.7649
ltoes -0.547167
102
root -21.4651 19.4432 0.153325 -288.247 -88.8412 -67.1385
lowerback -13.3086 6.29807 -4.67718
upperback 3.20306 9.85731 -7.67809
thorax 11.6346 4.58996 -3.52802
lowerneck -3.58032 -7.9165 6.51098
upperneck 9.42549 -10.9764 -1.68496
head 3.20845 -5.31338 -2.04955
rclavicle 2.78299e-015 3.18055e-015
rhumerus 45.6631 10.8706 -30.5064
rradius 48.1891
rwrist -28.261
rhand 0.410688 3.47457
rfingers 7.12502
rthumb 25.9837 -24.7691
lclavicle 2.78299e-015 3.18055e-015
lhumerus -23.5145 26.3744 69.9639
lradius 13.1648
lwrist -51.0705
lhand -16.6484 -5.37132
lfingers 7.12502
lthumb 9.57462 24.3911
rfemur -12.3237 -14.4975 17.9418
rtibia 25.1278
rfoot -8.93307 19.6873
rtoes 3.86274
lfemur -11.472 14.4179 -16.0615
ltibia 24.443
lfoot -9.84633 -15.7201
ltoes -0.718781
103
root -21.4644 19.4436 0.156071 -287.742 -88.8582 -67.6571
lowerback -13.3156 6.29588 -4.65665
upperback 3.21465 9.85113 -7.64413
thorax 11.6481 4.58722 -3.50215
lowerneck -3.69291 -7.90985 6.42266
upperneck 9.79045 -10.9951 -1.5598
head 3.368 -5.31235 -2.01817
rclavicle -2.74323e-014 -3.18055e-014
rhumerus 45.4472 10.7165 -30.8294
rradius 48.39
rwrist -28.5258
rhand 0.269398 3.95909
rfingers 7.12502
rthumb 25.8484 -24.3043
lclavicle -2.74323e-014 -3.18055e-014
lhumerus -23.6591 27.2361 69.6317
lradius 12.9742
lwrist -51.9965
lhand -16.5526 -5.37306
lfingers 7.12502
lthumb 9.667 24.3851
rfemur -12.3013 -14.4853 17.9141
rtibia 25.1118
rfoot -8.92197 19.6893
rtoes 3.85717
lfemur -11.4599 14.4156 -16.0823
ltibia 24.4548
lfoot -9.86734 -15.7001
ltoes -0.751645
